<svg xmlns="http://www.w3.org/2000/svg" viewBox="0 0 1000 1000" role="img" aria-label="Owen Gong contour mark">
  <style>
    path { fill: #2a2825; }
    @media (prefers-color-scheme: dark) { path { fill: #f7f3ec; } }
  </style>
  <path fill-rule="evenodd" d="M 322.7,87.3 L 349.6,86.9 L 362.3,87.9 L 383.0,90.6 L 404.7,95.3 L 426.4,101.9 L 445.3,109.4 L 465.2,118.8 L 479.9,127.5 L 495.6,138.2 L 514.4,153.5 L 551.0,187.3 L 581.6,211.4 L 599.5,222.8 L 615.9,231.8 L 662.4,254.6 L 681.0,266.3 L 694.1,276.6 L 706.8,289.3 L 716.3,301.3 L 727.9,320.0 L 747.8,359.6 L 759.3,376.4 L 773.7,394.3 L 786.3,406.0 L 802.5,418.2 L 814.1,425.1 L 845.1,440.1 L 858.8,447.8 L 870.9,457.2 L 875.8,462.1 L 880.4,468.2 L 884.1,474.3 L 887.4,481.8 L 889.0,488.0 L 889.6,497.1 L 889.1,501.4 L 886.7,509.8 L 883.4,516.2 L 878.7,522.2 L 868.6,530.7 L 859.4,536.1 L 848.5,540.9 L 815.4,552.7 L 805.4,557.4 L 795.6,563.2 L 785.4,571.5 L 778.9,579.6 L 774.7,588.2 L 773.0,597.2 L 773.2,602.8 L 774.7,609.0 L 779.8,619.6 L 785.4,625.8 L 796.7,634.0 L 803.7,637.7 L 812.8,641.3 L 853.2,652.7 L 867.0,657.4 L 883.0,665.8 L 895.3,675.0 L 903.1,682.8 L 909.4,691.2 L 915.0,701.2 L 918.8,710.1 L 921.3,718.3 L 923.8,731.4 L 924.8,740.2 L 924.8,749.0 L 922.3,767.0 L 918.6,780.9 L 914.1,793.0 L 907.6,806.0 L 900.0,818.9 L 885.5,837.7 L 867.9,855.3 L 850.0,869.6 L 830.2,881.9 L 819.3,887.7 L 804.5,894.3 L 786.8,901.0 L 770.9,905.7 L 753.3,909.5 L 723.6,913.1 L 694.3,913.1 L 686.5,912.1 L 679.7,912.1 L 623.0,906.3 L 595.7,904.3 L 585.0,904.3 L 577.1,903.3 L 541.0,903.3 L 533.2,902.3 L 523.4,902.3 L 494.9,898.7 L 481.1,895.8 L 450.3,886.6 L 436.5,880.9 L 416.9,870.2 L 404.8,862.7 L 385.0,847.4 L 377.7,840.1 L 372.8,836.2 L 355.7,816.2 L 345.3,802.2 L 325.6,773.0 L 317.7,762.4 L 301.0,743.9 L 281.6,728.2 L 264.1,716.4 L 215.7,688.6 L 193.9,674.3 L 177.0,660.9 L 163.3,648.2 L 155.5,639.4 L 139.2,618.6 L 121.7,590.2 L 104.5,555.7 L 90.0,521.4 L 81.6,495.6 L 77.8,477.9 L 76.2,463.9 L 76.2,444.3 L 78.8,426.4 L 83.3,409.5 L 87.9,397.5 L 95.4,382.5 L 103.3,368.9 L 108.9,359.9 L 135.1,324.5 L 144.1,311.1 L 151.7,298.2 L 158.0,284.0 L 163.5,266.1 L 165.3,257.1 L 167.0,244.1 L 168.0,215.8 L 169.7,201.9 L 172.3,188.9 L 179.8,169.1 L 186.3,157.0 L 191.1,150.1 L 197.5,141.8 L 205.9,132.7 L 211.2,128.1 L 225.2,117.7 L 245.1,106.4 L 260.9,99.7 L 286.7,92.3 L 300.6,89.6 Z M 350.9,148.8 L 331.7,151.0 L 318.9,153.9 L 306.9,157.4 L 292.0,163.1 L 274.2,172.6 L 264.2,179.3 L 256.1,185.8 L 245.3,196.5 L 233.9,211.5 L 226.6,225.6 L 222.0,237.6 L 219.3,247.6 L 216.8,263.7 L 215.8,275.4 L 215.8,288.1 L 214.1,303.0 L 211.5,316.0 L 206.9,330.9 L 199.5,347.0 L 193.8,356.9 L 183.9,371.4 L 157.8,405.8 L 146.2,423.5 L 136.9,442.6 L 131.5,460.6 L 129.9,471.7 L 129.9,493.2 L 133.4,514.1 L 139.8,534.1 L 147.5,551.8 L 156.0,566.6 L 162.7,576.6 L 175.0,592.6 L 189.7,608.2 L 206.7,622.4 L 225.4,635.0 L 241.2,643.6 L 261.0,652.1 L 294.8,664.2 L 318.4,673.8 L 336.2,683.4 L 353.8,695.0 L 372.8,711.2 L 379.7,718.0 L 398.2,739.5 L 424.0,771.3 L 440.6,787.9 L 457.8,801.0 L 469.4,807.9 L 481.6,813.4 L 499.7,818.7 L 518.6,821.3 L 536.1,821.3 L 546.9,820.3 L 595.7,813.5 L 622.1,811.5 L 652.3,813.5 L 714.8,821.3 L 747.1,821.3 L 761.1,819.7 L 779.0,815.1 L 791.0,810.5 L 804.1,803.2 L 817.6,792.2 L 824.7,783.6 L 831.4,772.8 L 834.9,764.5 L 837.9,750.0 L 837.9,737.3 L 834.9,722.8 L 828.6,709.5 L 824.7,703.7 L 815.6,693.1 L 796.2,677.4 L 765.3,655.6 L 748.3,640.4 L 741.8,632.3 L 733.4,618.2 L 730.3,606.7 L 729.5,596.7 L 731.0,587.5 L 733.4,580.1 L 737.8,571.8 L 743.4,564.7 L 749.2,558.8 L 762.3,549.4 L 791.4,532.7 L 798.6,527.1 L 805.1,520.0 L 810.4,509.7 L 811.5,503.9 L 811.1,492.6 L 809.5,487.4 L 805.2,479.9 L 800.0,473.4 L 790.6,466.3 L 760.4,449.5 L 745.7,439.9 L 736.5,432.4 L 724.8,420.7 L 713.5,406.6 L 705.6,395.0 L 684.7,357.3 L 676.2,343.3 L 669.3,333.7 L 659.9,322.5 L 648.2,310.8 L 631.3,297.4 L 615.6,287.8 L 557.3,260.1 L 538.5,248.6 L 529.9,242.5 L 511.9,227.3 L 487.1,202.4 L 470.5,187.7 L 458.4,178.3 L 437.8,165.7 L 418.6,157.6 L 406.7,153.9 L 393.9,151.0 L 372.1,148.4 Z M 373.5,198.7 L 380.9,198.2 L 392.6,199.2 L 404.6,200.8 L 412.5,202.7 L 423.7,206.2 L 435.5,210.9 L 453.6,221.2 L 469.5,233.6 L 485.1,248.3 L 489.5,253.7 L 510.0,274.2 L 526.0,287.4 L 551.4,304.0 L 577.5,317.1 L 596.8,328.0 L 606.9,334.5 L 617.9,343.0 L 623.8,347.9 L 634.5,358.6 L 647.9,375.5 L 656.6,389.3 L 662.1,400.4 L 668.6,416.3 L 672.2,429.4 L 674.8,446.3 L 674.8,467.8 L 668.0,513.7 L 668.0,529.3 L 669.7,545.1 L 672.4,559.0 L 680.0,586.6 L 695.2,628.0 L 698.7,640.2 L 701.4,652.1 L 702.6,665.6 L 702.1,675.8 L 700.6,685.0 L 698.0,693.1 L 694.4,700.3 L 689.8,707.4 L 681.4,716.6 L 673.3,723.1 L 664.4,728.8 L 653.3,734.4 L 641.5,739.1 L 619.6,745.6 L 594.9,750.2 L 563.5,753.9 L 535.2,753.9 L 522.1,752.3 L 503.3,747.7 L 493.4,743.9 L 482.1,738.6 L 469.3,730.9 L 452.4,717.6 L 434.8,700.0 L 411.9,674.0 L 403.1,665.3 L 397.7,660.9 L 391.4,654.5 L 376.4,643.1 L 362.6,634.4 L 341.6,624.2 L 322.9,617.5 L 275.7,604.2 L 261.7,598.6 L 246.7,591.1 L 233.1,582.4 L 218.0,570.1 L 214.1,566.2 L 201.8,551.1 L 195.0,540.4 L 186.6,522.4 L 181.4,503.1 L 179.7,489.3 L 179.7,476.6 L 183.2,455.6 L 185.7,447.4 L 190.4,435.5 L 199.0,420.7 L 206.6,409.7 L 232.9,376.4 L 241.5,362.6 L 249.0,347.7 L 252.6,338.5 L 257.2,320.6 L 261.5,286.9 L 263.2,277.9 L 266.7,266.7 L 274.1,251.6 L 277.9,245.7 L 284.4,237.5 L 294.2,227.8 L 301.3,222.2 L 312.2,215.5 L 327.4,208.2 L 341.4,203.7 L 353.2,200.8 Z M 395.8,266.0 L 383.4,268.1 L 375.1,270.6 L 359.0,278.0 L 351.1,282.8 L 339.1,292.2 L 333.2,298.1 L 321.9,313.2 L 313.7,329.3 L 309.8,340.1 L 304.6,358.3 L 300.7,369.0 L 295.0,381.0 L 284.7,398.0 L 260.5,431.4 L 256.5,438.2 L 250.3,451.5 L 247.6,461.5 L 246.1,476.6 L 247.6,487.7 L 250.3,497.7 L 255.5,509.1 L 263.9,521.3 L 275.6,533.0 L 282.8,538.5 L 294.8,546.0 L 310.9,553.4 L 328.7,559.0 L 368.8,569.7 L 383.7,574.3 L 405.3,583.0 L 429.9,596.5 L 471.6,624.1 L 482.1,630.2 L 497.2,637.6 L 513.2,643.0 L 526.2,645.7 L 532.2,646.5 L 552.7,646.5 L 562.0,645.0 L 571.9,642.3 L 584.3,637.0 L 592.1,632.2 L 601.3,624.8 L 608.7,616.5 L 614.6,607.7 L 619.0,598.5 L 622.5,587.3 L 624.0,577.1 L 624.0,560.5 L 622.3,546.7 L 619.6,533.7 L 603.1,471.1 L 595.2,435.1 L 589.7,418.1 L 583.3,404.0 L 572.6,387.4 L 565.2,378.1 L 553.5,366.4 L 521.7,339.6 L 515.4,333.2 L 510.0,328.9 L 478.3,297.1 L 464.2,285.8 L 450.5,277.0 L 436.4,270.6 L 424.2,267.3 L 413.1,265.6 Z M 408.6,325.6 L 418.9,325.2 L 433.5,328.2 L 444.6,333.8 L 452.9,340.1 L 461.7,348.8 L 470.1,359.0 L 480.6,375.9 L 492.5,397.1 L 520.5,455.1 L 529.0,475.9 L 534.4,495.9 L 535.2,505.9 L 534.6,510.2 L 532.1,518.4 L 529.7,522.9 L 524.6,529.5 L 515.0,536.5 L 503.5,540.6 L 495.1,542.0 L 477.5,542.0 L 471.5,541.2 L 445.7,535.7 L 374.6,517.0 L 353.6,510.6 L 337.7,503.1 L 327.4,495.9 L 319.6,488.1 L 315.1,481.8 L 310.9,472.3 L 308.6,459.0 L 310.9,445.6 L 313.5,438.5 L 318.3,429.6 L 322.7,422.3 L 339.3,398.9 L 363.1,358.2 L 371.3,346.9 L 379.1,339.1 L 388.3,332.7 L 399.7,327.5 Z"/>
</svg>
